<svg width="6" height="10" viewBox="0 0 6 10" fill="none" xmlns="http://www.w3.org/2000/svg">
  <path d="M0.857046 0.12061L5.00205 4.26561L5.70705 4.97061L5.00205 5.67561L0.857046 9.82561C0.762894 9.91976 0.635197 9.97266 0.502046 9.97266C0.368895 9.97266 0.241198 9.91976 0.147046 9.82561C0.052894 9.73146 1.61249e-08 9.60376 2.19451e-08 9.47061C2.77653e-08 9.33746 0.052894 9.20976 0.147046 9.11561L4.29705 4.97061L0.152046 0.82561C0.0701332 0.729959 0.0273299 0.606922 0.0321905 0.481084C0.0370511 0.355246 0.0892175 0.235876 0.178265 0.146829C0.267312 0.0577812 0.386682 0.0056162 0.51252 0.000755332C0.638358 -0.00410554 0.761396 0.0386973 0.857046 0.12061Z" fill="black"/>
</svg>

