<svg width="16" height="16" viewBox="0 0 16 16" fill="none" xmlns="http://www.w3.org/2000/svg">
<path d="M8.73477 7.98862L12.8798 3.84362C12.9617 3.74797 13.0045 3.62493 12.9996 3.49909C12.9948 3.37325 12.9426 3.25388 12.8536 3.16484C12.7645 3.07579 12.6451 3.02362 12.5193 3.01876C12.3935 3.0139 12.2704 3.05671 12.1748 3.13862L8.02977 7.28362L3.88477 3.13362C3.79062 3.03947 3.66292 2.98657 3.52977 2.98657C3.39662 2.98657 3.26892 3.03947 3.17477 3.13362C3.08062 3.22777 3.02773 3.35547 3.02773 3.48862C3.02773 3.62177 3.08062 3.74947 3.17477 3.84362L7.32477 7.98862L3.17477 12.1336C3.12243 12.1784 3.07992 12.2336 3.04991 12.2956C3.0199 12.3577 3.00303 12.4252 3.00037 12.4941C2.99771 12.563 3.00932 12.6316 3.03445 12.6958C3.05959 12.7599 3.09772 12.8182 3.14645 12.8669C3.19517 12.9157 3.25345 12.9538 3.31761 12.9789C3.38177 13.0041 3.45044 13.0157 3.5193 13.013C3.58816 13.0104 3.65572 12.9935 3.71776 12.9635C3.77979 12.9335 3.83495 12.891 3.87977 12.8386L8.02977 8.69362L12.1748 12.8386C12.2704 12.9205 12.3935 12.9633 12.5193 12.9585C12.6451 12.9536 12.7645 12.9014 12.8536 12.8124C12.9426 12.7234 12.9948 12.604 12.9996 12.4781C13.0045 12.3523 12.9617 12.2293 12.8798 12.1336L8.73477 7.98862Z" fill="black"/>
</svg>
