<svg width="21" height="19" viewBox="0 0 21 19" fill="none" xmlns="http://www.w3.org/2000/svg">
  <path d="M6.42 0C6.80667 1.69017e-08 7.13333 0.133333 7.4 0.4C7.68 0.68 7.82 1.01333 7.82 1.4C7.82 1.78667 7.68 2.11333 7.4 2.38C7.13333 2.66 6.80667 2.8 6.42 2.8C6.03333 2.8 5.7 2.66 5.42 2.38C5.15333 2.11333 5.02 1.78667 5.02 1.4C5.02 1.01333 5.15333 0.68 5.42 0.4C5.7 0.133333 6.03333 -1.69017e-08 6.42 0ZM14.1 3.35704e-07C14.4867 3.52605e-07 14.8133 0.133334 15.08 0.4C15.36 0.68 15.5 1.01333 15.5 1.4C15.5 1.78667 15.36 2.11333 15.08 2.38C14.8133 2.66 14.4867 2.8 14.1 2.8C13.7133 2.8 13.38 2.66 13.1 2.38C12.8333 2.11333 12.7 1.78667 12.7 1.4C12.7 1.01333 12.8333 0.68 13.1 0.4C13.38 0.133334 13.7133 3.18802e-07 14.1 3.35704e-07Z" fill="black"/>
  <path d="M1.85988 18.4461H0.379883L0.379883 17.7261C0.379883 16.7928 0.553216 15.8994 0.899883 15.0461C1.24655 14.1928 1.75322 13.4394 2.41988 12.7861C3.07322 12.1328 3.86655 11.6128 4.79988 11.2261C5.73322 10.8394 6.79322 10.6461 7.97988 10.6461L13.0199 10.6461C14.1932 10.6461 15.2465 10.8394 16.1799 11.2261C17.1266 11.6128 17.9265 12.1328 18.5799 12.7861C19.2465 13.4394 19.7532 14.1928 20.0999 15.0461C20.4466 15.8994 20.6199 16.7928 20.6199 17.7261V18.4461H19.1399V17.7261C19.1399 17.0061 18.9932 16.3128 18.6999 15.6461C18.4199 14.9794 18.0132 14.3928 17.4799 13.8861C16.9466 13.3794 16.2932 12.9728 15.5199 12.6661C14.7599 12.3594 13.8999 12.2061 12.9399 12.2061H8.05988C7.09988 12.2061 6.23322 12.3594 5.45988 12.6661C4.69988 12.9728 4.05322 13.3794 3.51988 13.8861C2.98655 14.3928 2.57988 14.9794 2.29988 15.6461C2.00655 16.3128 1.85988 17.0061 1.85988 17.7261V18.4461Z" fill="black"/>
</svg>

