<svg width="16" height="16" viewBox="0 0 16 16" fill="none" xmlns="http://www.w3.org/2000/svg">
<path d="M3.43973 6.6925L7.53473 2.6075V11.9325C7.53473 12.0651 7.58741 12.1923 7.68118 12.2861C7.77494 12.3798 7.90212 12.4325 8.03473 12.4325C8.16734 12.4325 8.29452 12.3798 8.38828 12.2861C8.48205 12.1923 8.53473 12.0651 8.53473 11.9325V2.6075L12.6297 6.6925C12.7254 6.77442 12.8484 6.81722 12.9743 6.81236C13.1001 6.8075 13.2195 6.75533 13.3085 6.66629C13.3976 6.57724 13.4497 6.45787 13.4546 6.33203C13.4594 6.20619 13.4166 6.08316 13.3347 5.9875L8.03473 0.692505L2.72973 5.9975C2.67506 6.04193 2.63039 6.09741 2.59865 6.16031C2.56692 6.2232 2.54883 6.29209 2.54558 6.36247C2.54232 6.43284 2.55398 6.50311 2.57978 6.56866C2.60558 6.63421 2.64494 6.69358 2.69529 6.74286C2.74563 6.79214 2.80582 6.83022 2.87191 6.85461C2.938 6.87901 3.0085 6.88916 3.07878 6.88441C3.14907 6.87965 3.21756 6.8601 3.27977 6.82703C3.34197 6.79396 3.39648 6.74812 3.43973 6.6925Z" fill="white"/>
<path d="M14.5 14.4325H1.5C1.36739 14.4325 1.24021 14.4786 1.14645 14.5606C1.05268 14.6427 1 14.754 1 14.87C1 14.986 1.05268 15.0973 1.14645 15.1794C1.24021 15.2614 1.36739 15.3075 1.5 15.3075H14.5C14.6326 15.3075 14.7598 15.2614 14.8536 15.1794C14.9473 15.0973 15 14.986 15 14.87C15 14.754 14.9473 14.6427 14.8536 14.5606C14.7598 14.4786 14.6326 14.4325 14.5 14.4325Z" fill="white"/>
</svg>
