<svg width="179" height="180" viewBox="0 0 179 180" fill="none" xmlns="http://www.w3.org/2000/svg">
<rect width="178.2" height="179.1" transform="translate(0 0.399994)" fill="white"/>
<path d="M83.7 7C83.7 7 88.2 12.1 86.5 23.7C86.5 23.7 63 19.1 53.7 21.1C44.4 23.1 39.7 23.7 23.5 38.5C23.5 38.5 10.4 55.5 9.9 74.4C9.4 93.3 15 109.3 18.3 117.6C21.6 125.9 27.3 136.9 28.5 138.2C29.7 139.5 35.1 151.7 44.4 158.2C53.6 164.7 61.5 169.4 67.7 169.4C73.9 169.4 79.7 168.1 84.3 167.3C88.9 166.5 100.4 167.5 103 168.1C105.6 168.7 116.1 170.7 126 164.7C135.9 158.7 142.1 149.6 144.7 145.7C144.7 145.7 161.3 124.6 165.4 103C169.5 81.4 169.2 72.3 164.9 54.9C160.6 37.5 139.5 23.7 124.5 21.1C109.5 18.5 94.3 24 92.3 23.4C92.3 23.4 92.3 12.5 93.1 8.6C93.9 4.7 87.8 2 83.7 7Z" fill="#CC261E"/>
<path d="M92.3 23.3C92.3 23.3 92.3 12.4 93.1 8.5C93.9 4.6 87.9 2 83.7 7C83.7 7 88.2 12.1 86.5 23.7C86.5 23.7 89.2 23.9 90.4 23.8C91.6 23.7 92.3 23.3 92.3 23.3Z" fill="#574743"/>
</svg>
