<svg width="179" height="181" viewBox="0 0 179 181" fill="none" xmlns="http://www.w3.org/2000/svg">
<rect width="179" height="180" transform="translate(0 0.399994)" fill="white"/>
<path d="M87.9 20.8C87.6 21.1 87.1 21.2 86.4 21.4C85.3 21.6 81.8 21.3 81.8 21.3C81.8 21.3 67.3 20.8 59.2 38.5C57.6 42.4 56.7 46.6 56.8 50.9C56.8 58.1 56.6 76.9 52.3 80.2C52.3 80.2 45.7 87.9 45.1 87.6C45.1 87.6 33.7 98.5 33.7 98.9C33.7 99.3 27.7 106.2 26.1 116.8C24.5 127.4 25.1 138.8 28.4 147C31.7 155.2 38.8 165.5 48.9 170.2C48.9 170.2 58.9 175.3 65.6 173.4L83.3 172.4L102.4 173.6C102.4 173.6 112.6 174.2 116.2 172.6C119.8 171 134 166.5 141.8 153.7C149.6 141 149.1 126.4 149.4 121.8C149.7 117.2 147.4 100.4 143.2 95.8C143.2 95.8 138.4 88.6 136.5 87.2C134.6 85.8 128.3 78.8 127.2 77.6C126.1 76.4 118.4 65.5 117.2 58.8L114.7 50.2C114.7 50.2 110.9 37.2 109.4 35.4C107.9 33.6 109 32.6 102.5 25.9C102.5 26 93.9 19.6 87.9 20.8Z" fill="#09833A"/>
<path d="M87.9 20.8C87.9 20.8 86.5 11.5 89 7.39999C89 7.39999 89.4 5.99999 85.1 4.89999C85.1 4.89999 81.8 4.99999 81.2 6.49999C80.6 7.99999 82.4 8.19999 81.9 21.2C81.9 21.2 85.4 21.5 86.5 21.3C87.2 21.2 87.7 21.1 87.9 20.8Z" fill="#574743"/>
</svg>
