<?xml version="1.0" standalone="no"?>
<!DOCTYPE svg PUBLIC "-//W3C//DTD SVG 20010904//EN"
 "http://www.w3.org/TR/2001/REC-SVG-20010904/DTD/svg10.dtd">
<svg version="1.0" xmlns="http://www.w3.org/2000/svg"
 width="700.000000pt" height="700.000000pt" viewBox="0 0 700.000000 700.000000"
 preserveAspectRatio="xMidYMid meet">
<metadata>
Created by potrace 1.14, written by Peter Selinger 2001-2017
</metadata>
<g transform="translate(0.000000,700.000000) scale(0.100000,-0.100000)"
fill="#000000" stroke="none">
<path d="M3348 6550 c-73 -23 -134 -58 -197 -116 l-51 -46 19 -27 c87 -123
169 -368 188 -566 9 -96 9 -327 0 -410 -3 -33 -6 -70 -7 -82 0 -17 -5 -21 -22
-18 -71 11 -169 25 -208 30 -25 4 -56 8 -70 10 -14 2 -47 6 -75 9 -27 3 -72 8
-100 11 -138 16 -374 20 -455 9 -75 -10 -251 -53 -330 -80 -176 -61 -374 -195
-666 -454 -89 -78 -218 -277 -305 -468 -22 -48 -46 -100 -54 -117 -19 -42
-105 -295 -100 -295 2 0 -2 -21 -10 -47 -13 -46 -17 -70 -35 -198 -8 -58 -5
-440 3 -480 3 -11 8 -49 12 -85 3 -36 9 -78 11 -95 3 -16 7 -41 9 -55 2 -14 6
-36 9 -50 3 -14 8 -41 10 -60 14 -97 124 -492 157 -565 5 -11 22 -57 39 -103
68 -189 262 -589 353 -729 24 -37 57 -90 72 -118 42 -74 179 -278 212 -316
135 -156 228 -233 456 -378 218 -139 380 -212 505 -229 100 -14 256 -3 457 33
133 24 148 26 210 33 69 8 173 7 312 -2 151 -10 171 -13 273 -31 121 -22 320
-26 413 -9 242 45 443 160 662 379 91 91 245 278 273 332 7 12 18 27 25 35 30
32 220 310 263 387 10 19 24 41 29 50 58 93 166 302 225 436 45 101 98 240
104 271 2 10 9 31 14 45 16 39 59 217 66 267 3 24 7 46 10 50 2 4 7 30 10 57
4 28 9 57 11 65 5 19 12 68 31 205 54 408 34 717 -77 1160 -48 193 -119 328
-260 500 -275 336 -768 616 -1164 661 -89 11 -347 11 -444 1 -96 -9 -259 -34
-270 -41 -3 -2 -28 -7 -55 -10 -27 -4 -52 -9 -56 -11 -3 -2 -24 -6 -48 -10
-31 -4 -42 -3 -42 7 -2 44 2 375 5 433 7 142 17 321 20 350 8 86 17 150 24
190 22 120 -24 216 -131 271 -65 34 -179 40 -260 14z"/>
</g>
</svg>
